<svg width="138" height="59" viewBox="0 0 138 59" fill="none" xmlns="http://www.w3.org/2000/svg">
    <path d="M51.456 17.32V41H45.984V17.32H51.456ZM58.1735 21.288C57.2135 21.288 56.4242 21.0107 55.8055 20.456C55.2082 19.88 54.9095 19.176 54.9095 18.344C54.9095 17.4907 55.2082 16.7867 55.8055 16.232C56.4242 15.656 57.2135 15.368 58.1735 15.368C59.1122 15.368 59.8802 15.656 60.4775 16.232C61.0962 16.7867 61.4055 17.4907 61.4055 18.344C61.4055 19.176 61.0962 19.88 60.4775 20.456C59.8802 21.0107 59.1122 21.288 58.1735 21.288ZM60.8935 23.144V41H55.4215V23.144H60.8935ZM72.123 41.256C70.5657 41.256 69.179 40.9893 67.963 40.456C66.747 39.9227 65.787 39.1973 65.083 38.28C64.379 37.3413 63.9843 36.296 63.899 35.144H69.307C69.371 35.7627 69.659 36.264 70.171 36.648C70.683 37.032 71.3123 37.224 72.059 37.224C72.7417 37.224 73.2643 37.096 73.627 36.84C74.011 36.5627 74.203 36.2107 74.203 35.784C74.203 35.272 73.9363 34.8987 73.403 34.664C72.8697 34.408 72.0057 34.1307 70.811 33.832C69.531 33.5333 68.4643 33.224 67.611 32.904C66.7577 32.5627 66.0217 32.04 65.403 31.336C64.7843 30.6107 64.475 29.64 64.475 28.424C64.475 27.4 64.7523 26.472 65.307 25.64C65.883 24.7867 66.715 24.1147 67.803 23.624C68.9123 23.1333 70.2243 22.888 71.739 22.888C73.979 22.888 75.739 23.4427 77.019 24.552C78.3203 25.6613 79.067 27.1333 79.259 28.968H74.203C74.1177 28.3493 73.8403 27.8587 73.371 27.496C72.923 27.1333 72.3257 26.952 71.579 26.952C70.939 26.952 70.4483 27.08 70.107 27.336C69.7657 27.5707 69.595 27.9013 69.595 28.328C69.595 28.84 69.8617 29.224 70.395 29.48C70.9497 29.736 71.803 29.992 72.955 30.248C74.2777 30.5893 75.355 30.9307 76.187 31.272C77.019 31.592 77.7443 32.1253 78.363 32.872C79.003 33.5973 79.3337 34.5787 79.355 35.816C79.355 36.8613 79.0563 37.8 78.459 38.632C77.883 39.4427 77.0403 40.0827 75.931 40.552C74.843 41.0213 73.5737 41.256 72.123 41.256ZM93.6788 22.952C95.7268 22.952 97.3694 23.6347 98.6068 25C99.8441 26.344 100.463 28.2 100.463 30.568V41H95.0228V31.304C95.0228 30.1093 94.7134 29.1813 94.0948 28.52C93.4761 27.8587 92.6441 27.528 91.5988 27.528C90.5534 27.528 89.7214 27.8587 89.1028 28.52C88.4841 29.1813 88.1748 30.1093 88.1748 31.304V41H82.7028V17.32H88.1748V25.544C88.7294 24.7547 89.4868 24.1253 90.4468 23.656C91.4068 23.1867 92.4841 22.952 93.6788 22.952Z" fill="#2C3E50"/>
    <path d="M72.0486 19C73.9236 19 75.4436 17.433 75.4436 15.5C75.4436 13.567 73.9236 12 72.0486 12C70.1736 12 68.6536 13.567 68.6536 15.5C68.6536 17.433 70.1736 19 72.0486 19Z" fill="#FF6B6B"/>
    <path d="M20.9999 6C23.7328 6 26.4389 6.54318 28.9638 7.59853C31.4887 8.65388 33.7828 10.2007 35.7153 12.1508C37.6477 14.1008 39.1807 16.4158 40.2265 18.9636C41.2723 21.5115 41.8106 24.2422 41.8106 27C41.8106 29.7578 41.2723 32.4885 40.2265 35.0364C39.1807 37.5842 37.6477 39.8992 35.7153 41.8492C33.7828 43.7993 31.4887 45.3461 28.9638 46.4015C26.4389 47.4568 23.7328 48 20.9999 48C18.267 48 15.5609 47.4568 13.036 46.4015C10.5111 45.3461 8.21697 43.7993 6.28452 41.8492C4.35207 39.8992 2.81916 37.5842 1.77333 35.0364C0.727493 32.4885 0.189209 29.7578 0.189209 27C0.189209 24.2422 0.727493 21.5115 1.77333 18.9636C2.81916 16.4158 4.35207 14.1008 6.28452 12.1508C8.21697 10.2007 10.5111 8.65388 13.036 7.59853C15.5609 6.54318 18.267 6 20.9999 6ZM20.9999 12C17.0575 12 13.2766 13.5804 10.4889 16.3934C7.70123 19.2064 6.13512 23.0218 6.13512 27C6.13512 30.9782 7.70123 34.7936 10.4889 37.6066C13.2766 40.4197 17.0575 42 20.9999 42C24.9423 42 28.7232 40.4197 31.5109 37.6066C34.2986 34.7936 35.8647 30.9782 35.8647 27C35.8647 23.0218 34.2986 19.2064 31.5109 16.3934C28.7232 13.5804 24.9423 12 20.9999 12Z" fill="#FF6B6B"/>
    <path d="M21.8428 37L33.1571 46Z" fill="black"/>
    <path d="M21.8428 37L33.1571 46" stroke="#FF6B6B" stroke-width="8" stroke-linecap="round"/>
    <path d="M11.9998 30C13.6274 30 14.9468 28.8807 14.9468 27.5C14.9468 26.1193 13.6274 25 11.9998 25C10.3722 25 9.05273 26.1193 9.05273 27.5C9.05273 28.8807 10.3722 30 11.9998 30Z" fill="#2C3E50"/>
    <path d="M30.4999 30C31.895 30 33.026 28.8807 33.026 27.5C33.026 26.1193 31.895 25 30.4999 25C29.1048 25 27.9739 26.1193 27.9739 27.5C27.9739 28.8807 29.1048 30 30.4999 30Z" fill="#2C3E50"/>
</svg>
