<svg width="42" height="44" viewBox="0 0 42 44" fill="none" xmlns="http://www.w3.org/2000/svg">
    <path d="M20.9999 0C23.7328 -4.10938e-08 26.4389 0.543181 28.9638 1.59853C31.4887 2.65388 33.7828 4.20073 35.7153 6.15076C37.6477 8.10079 39.1807 10.4158 40.2265 12.9636C41.2723 15.5115 41.8106 18.2422 41.8106 21C41.8106 23.7578 41.2723 26.4885 40.2265 29.0364C39.1807 31.5842 37.6477 33.8992 35.7153 35.8492C33.7828 37.7993 31.4887 39.3461 28.9638 40.4015C26.4389 41.4568 23.7328 42 20.9999 42C18.267 42 15.5609 41.4568 13.036 40.4015C10.5111 39.3461 8.21697 37.7993 6.28452 35.8492C4.35207 33.8992 2.81916 31.5842 1.77333 29.0364C0.727493 26.4885 0.189209 23.7578 0.189209 21C0.189209 18.2422 0.727493 15.5115 1.77333 12.9636C2.81916 10.4158 4.35207 8.10079 6.28452 6.15076C8.21697 4.20073 10.5111 2.65388 13.036 1.59853C15.5609 0.543181 18.267 -4.10938e-08 20.9999 0ZM20.9999 6C17.0575 6 13.2766 7.58035 10.4889 10.3934C7.70123 13.2064 6.13512 17.0218 6.13512 21C6.13512 24.9782 7.70123 28.7936 10.4889 31.6066C13.2766 34.4197 17.0575 36 20.9999 36C24.9423 36 28.7232 34.4197 31.5109 31.6066C34.2986 28.7936 35.8647 24.9782 35.8647 21C35.8647 17.0218 34.2986 13.2064 31.5109 10.3934C28.7232 7.58035 24.9423 6 20.9999 6Z" fill="#FF6B6B"/>
    <path d="M21.8428 31L33.1571 40Z" fill="black"/>
    <path d="M21.8428 31L33.1571 40" stroke="#FF6B6B" stroke-width="8" stroke-linecap="round"/>
    <path d="M11.9999 24C13.6275 24 14.947 22.8807 14.947 21.5C14.947 20.1193 13.6275 19 11.9999 19C10.3723 19 9.05286 20.1193 9.05286 21.5C9.05286 22.8807 10.3723 24 11.9999 24Z" fill="#2C3E50"/>
    <path d="M30.4999 24C31.895 24 33.026 22.8807 33.026 21.5C33.026 20.1193 31.895 19 30.4999 19C29.1048 19 27.9739 20.1193 27.9739 21.5C27.9739 22.8807 29.1048 24 30.4999 24Z" fill="#2C3E50"/>
</svg>
